<svg xmlns="http://www.w3.org/2000/svg" xml:space="preserve"
     style="fill-rule:evenodd;clip-rule:evenodd;stroke-linejoin:round;stroke-miterlimit:2" viewBox="0 0 184 35">
    <path
          d="M17 21.2v1.2H4.7c.2 1 .8 1.8 1.6 2.4.8.6 1.8.9 3 .9a5.4 5.4 0 0 0 4-1.6l2.6 2.7c-1.5 1.8-3.7 2.6-6.7 2.6-1.8 0-3.4-.3-4.8-1A7.8 7.8 0 0 1 0 21a7.9 7.9 0 0 1 4.2-7.3 9 9 0 0 1 4.4-1 9 9 0 0 1 4.3 1c1.3.7 2.3 1.7 3 3a8.8 8.8 0 0 1 1.1 4.4Zm-8.3-4.9c-1.1 0-2 .3-2.7 1-.7.5-1.2 1.4-1.3 2.4h8c-.2-1-.7-1.8-1.4-2.4a4 4 0 0 0-2.6-1ZM33 12.8c2 0 3.6.6 4.9 1.8 1.2 1.2 1.8 3 1.8 5.3v9.3H35v-8.5c0-1.3-.2-2.3-.8-2.9-.6-.6-1.4-1-2.4-1-1.2 0-2.2.4-2.9 1.1-.7.8-1 1.9-1 3.3v8h-4.7V13h4.5v2c.6-.8 1.4-1.3 2.3-1.7.9-.3 2-.5 3-.5Zm30.6-6v22.4h-4.5v-1.9c-1.1 1.4-2.8 2.1-5 2.1-1.5 0-2.9-.3-4.1-1a7.3 7.3 0 0 1-3-2.9c-.6-1.3-1-2.7-1-4.4 0-1.6.4-3.1 1-4.4a7.3 7.3 0 0 1 3-2.9c1.2-.7 2.6-1 4.1-1 2 0 3.7.6 4.8 2V6.8h4.7ZM55 25.7a4 4 0 0 0 3-1.2c.7-.8 1.1-2 1.1-3.3 0-1.3-.4-2.4-1.1-3.2a4 4 0 0 0-3-1.3 4 4 0 0 0-3 1.3c-.8.8-1.1 1.9-1.1 3.2 0 1.4.4 2.5 1.1 3.3a4 4 0 0 0 3 1.2ZM71 6.9h4.8v22.3H71V7ZM83 13h4.7v16.2H83V13Zm2.4-2.2a3 3 0 0 1-2.1-.8c-.6-.5-.8-1.1-.8-1.8 0-.8.2-1.4.8-2a3 3 0 0 1 2-.7 3 3 0 0 1 2.2.8c.5.4.8 1 .8 1.8s-.3 1.4-.8 2a3 3 0 0 1-2.1.7Zm19.5 2c2 0 3.6.6 4.9 1.8 1.2 1.2 1.8 3 1.8 5.3v9.3H107v-8.5c0-1.3-.2-2.3-.8-2.9-.6-.6-1.4-1-2.4-1-1.2 0-2.2.4-2.9 1.1-.7.8-1 1.9-1 3.3v8H95V13h4.5v2c.6-.8 1.4-1.3 2.3-1.7.9-.3 2-.5 3-.5Zm30 8.4v1.2h-12.3c.2 1 .7 1.8 1.5 2.4a6.2 6.2 0 0 0 5.3.5c.7-.2 1.3-.6 1.9-1.2l2.5 2.7c-1.6 1.8-3.8 2.6-6.7 2.6-1.8 0-3.5-.3-4.9-1a7.8 7.8 0 0 1-4.4-7.3c0-1.6.4-3 1.2-4.3a7.9 7.9 0 0 1 3-3c1.4-.7 2.9-1 4.5-1a9 9 0 0 1 4.3 1c1.3.7 2.3 1.7 3 3a8.7 8.7 0 0 1 1.1 4.4Zm-8.4-4.9c-1 0-2 .3-2.7 1-.7.5-1.1 1.4-1.3 2.4h8c-.2-1-.6-1.8-1.3-2.4a4 4 0 0 0-2.7-1Z"
          style="fill:#242e33"/>
    <path
            d="M161.8 28.7a14.1 14.1 0 0 1-7.9 3.4c-4.1.3-7.5-1.7-8.6-5.8-1-4-.3-8.4 1-12.3 2-5.5 5-10 5-10a2.6 2.6 0 0 1 4.3 3s-2.6 3.9-4.3 8.7c-1 3-1.7 6.3-1 9.2.5 1.5 1.8 2.1 3.2 2 3.5-.2 7.5-3.4 9.3-9l.3-.6c.6-2.8 1.4-5.5 2.3-8a2.6 2.6 0 0 1 5 1.7 51.4 51.4 0 0 0-3.3 20.6 2.6 2.6 0 1 1-5.2.4l-.1-3.3Zm13.5-19.5a2.6 2.6 0 0 1 5 1.8 51.4 51.4 0 0 0-3.2 20.6 2.6 2.6 0 0 1-5.2.4c-.6-7.9 1-15.8 3.4-22.8Zm5.8-9.2a2.8 2.8 0 1 1 0 5.5 2.8 2.8 0 0 1 0-5.5Z"
            style="fill:#03e987"/>
</svg>
